<?xml version="1.0" encoding="utf-8"?><svg xmlns="http://www.w3.org/2000/svg" xmlns:xlink="http://www.w3.org/1999/xlink"><symbol viewBox="0 0 44 44" id="check-circle" xmlns="http://www.w3.org/2000/svg"><g data-name="Layer 2"><path d="M22 27.57l-9.28-9.28a1 1 0 0 0-1.41 1.41l10 10a1 1 0 0 0 1.43 0l16.68-17.5 1.43-1.5 2.87-3a1 1 0 1 0-1.44-1.37L39.71 9l-1.39 1.46zm20.25-14a1 1 0 0 0-1.64 1 20 20 0 1 1-4.19-6.49 1 1 0 0 0 1.37-1.45 1 1 0 0 0-.13-.08A21.95 21.95 0 1 0 42.47 14a1 1 0 0 0-.24-.43z" data-name="Checkmark 2@2x.png"/></g></symbol><symbol viewBox="0 0 68 67" id="envelope-open" xmlns="http://www.w3.org/2000/svg"><defs><clipPath id="ba"><path d="M0 0h68v66.703H0z"/></clipPath></defs><path d="M33.5 47a1.04 1.04 0 0 1-.574-.166L0 24.857 1.147 23 33.5 44.588 65.853 23 67 24.857 34.074 46.834A1.04 1.04 0 0 1 33.5 47"/><path d="M40 41.628L41.366 40 66 63.372 64.633 65zM2 63.372L26.632 40 28 41.628 3.367 65z"/><g clip-path="url(#ba)"><path d="M5.015 66.703C2.248 66.697.005 64.352 0 61.456V23.345c0-.378.185-.73.489-.934L33.426.176c.35-.235.798-.235 1.148 0L67.51 22.41c.304.205.488.556.489.934v38.11c-.006 2.897-2.247 5.242-5.015 5.248zm-2.89-42.758v37.51c0 1.67 1.294 3.025 2.89 3.025h57.96c1.596 0 2.89-1.355 2.89-3.024v-37.51L33.995 2.432z"/></g></symbol><symbol viewBox="0 0 256 512" class="csvg-inline--fa cfa-angle-down cfa-w-8 cfa-7x" id="fa-angle-down" xmlns="http://www.w3.org/2000/svg"><path d="M119.5 326.9L3.5 209.1c-4.7-4.7-4.7-12.3 0-17l7.1-7.1c4.7-4.7 12.3-4.7 17 0L128 287.3l100.4-102.2c4.7-4.7 12.3-4.7 17 0l7.1 7.1c4.7 4.7 4.7 12.3 0 17L136.5 327c-4.7 4.6-12.3 4.6-17-.1z"/></symbol><symbol viewBox="0 0 512 512" class="dsvg-inline--fa dfa-envelope dfa-w-16 dfa-7x" id="fa-envelope" xmlns="http://www.w3.org/2000/svg"><path d="M502.3 190.8c3.9-3.1 9.7-.2 9.7 4.7V400c0 26.5-21.5 48-48 48H48c-26.5 0-48-21.5-48-48V195.6c0-5 5.7-7.8 9.7-4.7 22.4 17.4 52.1 39.5 154.1 113.6 21.1 15.4 56.7 47.8 92.2 47.6 35.7.3 72-32.8 92.3-47.6 102-74.1 131.6-96.3 154-113.7zM256 320c23.2.4 56.6-29.2 73.4-41.4 132.7-96.3 142.8-104.7 173.4-128.7 5.8-4.5 9.2-11.5 9.2-18.9v-19c0-26.5-21.5-48-48-48H48C21.5 64 0 85.5 0 112v19c0 7.4 3.4 14.3 9.2 18.9 30.6 23.9 40.7 32.4 173.4 128.7 16.8 12.2 50.2 41.8 73.4 41.4z"/></symbol><symbol viewBox="0 0 448 512" class="esvg-inline--fa efa-telegram-plane efa-w-14 efa-5x" id="fa-telegram" xmlns="http://www.w3.org/2000/svg"><path d="M446.7 98.6l-67.6 318.8c-5.1 22.5-18.4 28.1-37.3 17.5l-103-75.9-49.7 47.8c-5.5 5.5-10.1 10.1-20.7 10.1l7.4-104.9 190.9-172.5c8.3-7.4-1.8-11.5-12.9-4.1L117.8 284 16.2 252.2c-22.1-6.9-22.5-22.1 4.6-32.7L418.2 66.4c18.4-6.9 34.5 4.1 28.5 32.2z"/></symbol><symbol viewBox="0 0 448 512" class="fsvg-inline--fa ffa-user ffa-w-14 ffa-5x" id="fa-user" xmlns="http://www.w3.org/2000/svg"><path d="M224 256c70.7 0 128-57.3 128-128S294.7 0 224 0 96 57.3 96 128s57.3 128 128 128zm89.6 32h-16.7c-22.2 10.2-46.9 16-72.9 16s-50.6-5.8-72.9-16h-16.7C60.2 288 0 348.2 0 422.4V464c0 26.5 21.5 48 48 48h352c26.5 0 48-21.5 48-48v-41.6c0-74.2-60.2-134.4-134.4-134.4z"/></symbol><symbol viewBox="0 0 576 512" class="gsvg-inline--fa gfa-youtube gfa-w-18 gfa-7x" id="fa-youtube" xmlns="http://www.w3.org/2000/svg"><path d="M549.655 124.083c-6.281-23.65-24.787-42.276-48.284-48.597C458.781 64 288 64 288 64S117.22 64 74.629 75.486c-23.497 6.322-42.003 24.947-48.284 48.597-11.412 42.867-11.412 132.305-11.412 132.305s0 89.438 11.412 132.305c6.281 23.65 24.787 41.5 48.284 47.821C117.22 448 288 448 288 448s170.78 0 213.371-11.486c23.497-6.321 42.003-24.171 48.284-47.821 11.412-42.867 11.412-132.305 11.412-132.305s0-89.438-11.412-132.305zm-317.51 213.508V175.185l142.739 81.205-142.739 81.201z"/></symbol></svg>